<?xml version="1.0" encoding="utf-8"?>
<!-- Generator: Adobe Illustrator 24.0.2, SVG Export Plug-In . SVG Version: 6.00 Build 0)  -->
<svg version="1.1" id="Capa_1" xmlns="http://www.w3.org/2000/svg" xmlns:xlink="http://www.w3.org/1999/xlink" x="0px" y="0px"
	 viewBox="0 0 800 800" style="enable-background:new 0 0 800 800;" xml:space="preserve">
<style type="text/css">
	.st0{fill:#C05C48;}
</style>
<path class="st0" d="M400,656c141.4,0,256-114.6,256-256S541.4,144,400,144S144,258.6,144,400S258.6,656,400,656z M319,319
	c9.4-9.4,24.6-9.4,33.9,0l47,47l47-47c9.4-9.4,24.6-9.4,33.9,0s9.4,24.6,0,33.9l-47,47l47,47c9.4,9.4,9.4,24.6,0,33.9
	s-24.6,9.4-33.9,0l-47-47l-47,47c-9.4,9.4-24.6,9.4-33.9,0s-9.4-24.6,0-33.9l47-47l-47-47C309.6,343.5,309.6,328.3,319,319z"/>
</svg>
