<?xml version="1.0" encoding="utf-8"?>
<!-- Generator: Adobe Illustrator 24.0.2, SVG Export Plug-In . SVG Version: 6.00 Build 0)  -->
<svg version="1.1" id="Capa_1" xmlns="http://www.w3.org/2000/svg" xmlns:xlink="http://www.w3.org/1999/xlink" x="0px" y="0px"
	 viewBox="0 0 800 800" style="enable-background:new 0 0 800 800;" xml:space="preserve">
<style type="text/css">
	.st0{fill:#67B04B;}
</style>
<path class="st0" d="M400,656c141.4,0,256-114.6,256-256S541.4,144,400,144S144,258.6,144,400S258.6,656,400,656z M513,353L385,481
	c-9.4,9.4-24.6,9.4-33.9,0l-64-64c-9.4-9.4-9.4-24.6,0-33.9s24.6-9.4,33.9,0l47,47L479,319c9.4-9.4,24.6-9.4,33.9,0
	c9.3,9.4,9.4,24.6,0,33.9L513,353z"/>
</svg>
