<?xml version="1.0" encoding="utf-8"?>
<!-- Generator: Adobe Illustrator 24.0.2, SVG Export Plug-In . SVG Version: 6.00 Build 0)  -->
<svg version="1.1" id="Capa_1" xmlns="http://www.w3.org/2000/svg" xmlns:xlink="http://www.w3.org/1999/xlink" x="0px" y="0px"
	 viewBox="0 0 302 302" style="enable-background:new 0 0 302 302;" xml:space="preserve">
<style type="text/css">
	.st0{fill:#9CC763;}
	.st1{fill:#F6A240;}
	.st2{fill:#E94792;}
	.st3{fill:#9264A7;}
	.st4{fill:#5DA0D7;}
	.st5{fill:none;}
	.st6{enable-background:new    ;}
	.st7{fill:#FFFFFF;}
</style>
<path class="st0" d="M150.8,40.6c0.1-9,0.1-18,0.2-27.1c46.5,33.8,93.1,67.6,139.6,101.4c-8.5,2.9-17,5.8-25.4,8.8
	C227,96,188.9,68.3,150.8,40.6z"/>
<path class="st1" d="M264.5,123.2c8.6-2.7,17.2-5.5,25.8-8.2c-17.7,54.7-35.3,109.5-53,164.2c-5.4-7.2-10.8-14.3-16.2-21.5
	C235.5,212.8,250,168,264.5,123.2z"/>
<path class="st2" d="M221.3,257.2c5.3,7.3,10.5,14.6,15.8,22c-57.5,0.2-115,0.4-172.5,0.6c5.1-7.4,10.2-14.7,15.4-22.1
	C127,257.5,174.1,257.4,221.3,257.2z"/>
<path class="st3" d="M37.1,123.8c-8.6-2.7-17.2-5.5-25.8-8.2C29.1,170.3,46.9,225,64.6,279.7c5.4-7.2,10.8-14.3,16.2-21.5
	C66.2,213.4,51.7,168.6,37.1,123.8z"/>
<path class="st4" d="M150.8,40.6c0.1-9,0.1-18,0.2-27.1C104.5,47.6,58,81.7,11.4,115.8c8.6,2.7,17.1,5.3,25.7,8
	C75,96,112.9,68.3,150.8,40.6z"/>
<rect x="99.2" y="100.7" class="st5" width="150.1" height="130.1"/>
<g>
	<g class="st6">
		<path class="st7" d="M127.8,105.6h11.7V166c0,24-11.8,31.4-27.3,31.4c-4.4,0-9.6-0.9-12.5-2.1l1.7-9.5c2.4,0.9,5.9,1.7,9.9,1.7
			c10.4,0,16.5-4.7,16.5-22.4C127.8,165.1,127.8,105.6,127.8,105.6z"/>
		<path class="st7" d="M156.9,183.9c3.6,2.2,9.8,4.6,15.6,4.6c8.6,0,12.6-4.2,12.6-9.7c0-5.7-3.4-8.6-12-11.9
			c-11.7-4.2-17.3-10.6-17.2-18.4c0-10.4,8.5-19,22.4-19c6.6,0,12.3,1.8,15.9,4l-2.9,8.6c-2.5-1.6-7.2-3.8-13.3-3.8
			c-7,0-10.7,4-10.7,8.9c0,5.4,3.8,7.8,12.3,11.1c11.2,4.2,17,9.8,17,19.5c0,11.5-8.9,19.5-24.2,19.5c-7.1,0-13.7-1.8-18.2-4.5
			L156.9,183.9z"/>
	</g>
</g>
</svg>
