<?xml version="1.0" encoding="utf-8"?>
<!-- Generator: Adobe Illustrator 24.0.2, SVG Export Plug-In . SVG Version: 6.00 Build 0)  -->
<svg version="1.1" id="Capa_1" xmlns="http://www.w3.org/2000/svg" xmlns:xlink="http://www.w3.org/1999/xlink" x="0px" y="0px"
	 viewBox="0 0 370 420" style="enable-background:new 0 0 370 420;" xml:space="preserve">
<style type="text/css">
	.st0{fill:#9CA3A3;}
	.st1{fill:#FFFFFF;}
</style>
<path class="st0" d="M185,192.9c-21.8,0-43.6,0.1-65.4,0c-4.8,0-9.6-0.3-13.9-3.1c-9.4-6.1-11.4-18.7-3.5-26.7
	c23.3-23.7,46.9-47.2,70.6-70.6c6.8-6.7,17.9-6.5,24.8,0.3c23.4,23.2,46.7,46.5,69.9,69.9c4.8,4.8,6.4,11,4.3,17.5
	c-2.2,6.7-6.9,10.7-14,12c-3.1,0.6-6.2,0.8-9.4,0.8C227.2,192.9,206.1,192.9,185,192.9z"/>
<path class="st1" d="M185.1,227.8c23.1,0,46.3,0.1,69.4-0.1c8,0,13.4,3.6,16.5,10.5c3.2,6.9,1.7,13.6-3.4,18.9
	c-23.2,23.5-46.6,46.9-70.2,70.2c-7.1,7-18.1,6.9-25.2-0.2c-23.4-23.2-46.6-46.5-69.8-69.8c-5.3-5.3-6.5-12.1-3.6-18.9
	c2.9-6.9,8.4-10.7,16.4-10.7C138.5,227.9,161.8,227.8,185.1,227.8z"/>
</svg>
