<?xml version="1.0" encoding="utf-8"?>
<!-- Generator: Adobe Illustrator 24.0.2, SVG Export Plug-In . SVG Version: 6.00 Build 0)  -->
<svg version="1.1" id="Capa_1" xmlns="http://www.w3.org/2000/svg" xmlns:xlink="http://www.w3.org/1999/xlink" x="0px" y="0px"
	 viewBox="0 0 500 484.1" style="enable-background:new 0 0 500 484.1;" xml:space="preserve">
<style type="text/css">
	.st0{fill:#FFFFFF;}
</style>
<path class="st0" d="M92.2,78.9c6.9,1.3,14.1,2.6,21.3,4c8.1,1.6,16.3,3.2,24.4,5c4.9,1.1,9.3,3.4,12.9,7
	c57.1,57.1,114.2,114.3,171.4,171.3c3.4,3.4,3.4,5.2-0.1,8.6C307,289.7,292,304.8,277,320c-2.8,2.9-4.5,3.2-7.5,0.1
	c-57.2-57.4-114.6-114.7-172-172c-4.3-4.3-6.4-9.6-7.6-15.4c-2.7-13.2-5.2-26.4-7.9-39.6C80.5,85.4,84.9,79,92.2,78.9z"/>
<path class="st0" d="M211,358.1c0.1,5.8-14.5,20.4-19.9,20.4c-1.6,0-2.9-0.6-4.3-1.2c-11.3-5.1-22.8-10-34-15.4
	c-3.2-1.5-5-0.8-7.3,1.5c-10,10-20.1,19.9-30.1,29.8c-6.7,6.7-11,6.7-17.8,0.2c-3.7-3.6-7.4-7.2-10.9-10.9c-6.4-6.7-6.4-10.9,0-17.5
	c9.9-10.1,19.7-20.3,29.8-30.2c2.7-2.7,3.2-4.9,1.5-8.3c-4.9-10.2-9.4-20.5-14.1-30.8c-3.1-6.8-2.6-9.9,2.6-15.2
	c2.7-2.7,5.4-5.4,8.1-8.1c4.3-4.2,8.5-4.5,13.2-0.6c3.6,3,6.9,6.2,10.2,9.6c2.3,2.4,4.1,2.7,6.6,0.2c8.2-8.2,16.7-16.2,24.9-24.5
	c2.9-2.9,4.7-3,7.6,0c15.2,15.4,30.5,30.7,45.9,45.9c2.7,2.7,3,4.4,0.1,7.2c-7.7,7.6-15.2,15.3-22.7,23.1c-5.1,5.3-5,5.3,0.1,10.5
	c2.8,2.8,5.5,5.8,8.1,8.8C209.9,354.4,210.8,356.4,211,358.1z"/>
<path class="st0" d="M401,90.7c-1.2,6-2.6,12.8-3.9,19.7c-1.7,8.5-3.4,16.9-5.1,25.4c-1.3,6.3-4.6,11.4-9.2,15.7
	c-19.3,18.1-37.4,37.3-56.3,55.8c-4.6,4.5-9.4,8.9-14,13.5c-1.9,1.9-3.4,2.6-5.7,0.3c-15.9-16.1-31.9-32.1-48-48
	c-2.9-2.8-0.7-4.3,1-6c15.8-15.8,31.5-31.5,47.3-47.3c7.4-7.4,15.1-14.6,22.2-22.3c5.6-6.1,12.4-9.2,20.2-10.7
	c12.9-2.5,25.7-5,38.6-7.6C395,77.8,401,82.8,401,90.7z"/>
<path class="st0" d="M381.1,289.2c0.1,2.6-1.2,4.8-2.2,7.1c-4.5,10-8.8,20-13.6,29.9c-1.9,4-1.8,6.6,1.6,9.9
	c9.8,9.3,19.2,19,28.7,28.5c7.2,7.2,7.2,11.1-0.1,18.4c-3.9,3.9-7.6,7.9-11.7,11.6c-5.7,5.1-10.1,5-15.7-0.5
	c-10.2-10.1-20.3-20.1-30.3-30.4c-2.7-2.7-4.6-3.1-8.1-1.4c-10.9,5.3-22.1,10-33.1,14.9c-4.7,2.1-8.6,1.5-12.2-2.3
	c-2.7-2.9-5.7-5.6-8.5-8.5c-5.8-5.8-5.8-9.9,0-15.7c21.7-21.8,43.5-43.5,65.3-65.3c4.4-4.3,8.6-8.8,13.1-13c4.7-4.5,9.4-4.4,14,0.1
	c3.3,3.3,6.6,6.6,9.9,9.9C380,284.3,381.3,286.5,381.1,289.2z"/>
</svg>
