<?xml version="1.0" encoding="utf-8"?>
<!-- Generator: Adobe Illustrator 24.0.2, SVG Export Plug-In . SVG Version: 6.00 Build 0)  -->
<svg version="1.1" id="Capa_1" xmlns="http://www.w3.org/2000/svg" xmlns:xlink="http://www.w3.org/1999/xlink" x="0px" y="0px"
	 viewBox="0 0 833 800" style="enable-background:new 0 0 833 800;" xml:space="preserve">
<style type="text/css">
	.st0{fill:#67B04B;}
</style>
<path class="st0" d="M433,176c-80.8,0-145.5,36.8-192.6,80.6c-46.8,43.4-78.1,95.4-92.9,131.1c-3.3,7.9-3.3,16.7,0,24.6
	c14.8,35.7,46.1,87.7,92.9,131.1C287.5,587.2,352.2,624,433,624s145.5-36.8,192.6-80.6c46.8-43.5,78.1-95.4,93-131.1
	c3.3-7.9,3.3-16.7,0-24.6c-14.9-35.7-46.2-87.7-93-131.1C578.5,212.8,513.8,176,433,176z M289,400c0-79.5,64.5-144,144-144
	s144,64.5,144,144s-64.5,144-144,144S289,479.5,289,400z M433,336c0,35.3-28.7,64-64,64c-7.1,0-13.9-1.2-20.3-3.3
	c-5.5-1.8-11.9,1.6-11.7,7.4c0.3,6.9,1.3,13.8,3.2,20.7c13.7,51.2,66.4,81.6,117.6,67.9s81.6-66.4,67.9-117.6
	c-11.1-41.5-47.8-69.4-88.6-71.1c-5.8-0.2-9.2,6.1-7.4,11.7C431.8,322.1,433,328.9,433,336L433,336z"/>
</svg>
