<?xml version="1.0" encoding="utf-8"?>
<!-- Generator: Adobe Illustrator 24.0.2, SVG Export Plug-In . SVG Version: 6.00 Build 0)  -->
<svg version="1.1" id="Capa_1" xmlns="http://www.w3.org/2000/svg" xmlns:xlink="http://www.w3.org/1999/xlink" x="0px" y="0px"
	 viewBox="0 0 290.2 278" style="enable-background:new 0 0 290.2 278;" xml:space="preserve">
<style type="text/css">
	.st0{fill:#A8D2F2;}
</style>
<path class="st0" d="M145.3,31.6c0.1-9,0.1-18,0.2-27.1c46.5,33.8,93.1,67.6,139.6,101.4c-8.5,2.9-17,5.8-25.4,8.8
	C221.5,87,183.4,59.3,145.3,31.6z"/>
<path class="st0" d="M259,114.2c8.6-2.7,17.2-5.5,25.8-8.2c-17.7,54.7-35.3,109.5-53,164.2c-5.4-7.2-10.8-14.3-16.2-21.5
	C230,203.8,244.5,159,259,114.2z"/>
<path class="st0" d="M215.8,248.2c5.3,7.3,10.5,14.6,15.8,22c-57.5,0.2-115,0.4-172.5,0.6c5.1-7.4,10.2-14.7,15.4-22.1
	C121.5,248.5,168.6,248.4,215.8,248.2z"/>
<path class="st0" d="M31.6,114.8c-8.6-2.7-17.2-5.5-25.8-8.2C23.6,161.3,41.4,216,59.1,270.7c5.4-7.2,10.8-14.3,16.2-21.5
	C60.7,204.4,46.2,159.6,31.6,114.8z"/>
<path class="st0" d="M145.3,31.6c0.1-9,0.1-18,0.2-27.1C99,38.6,52.5,72.7,5.9,106.8c8.6,2.7,17.1,5.3,25.7,8
	C69.5,87,107.4,59.3,145.3,31.6z"/>
</svg>
